<svg xmlns="http://www.w3.org/2000/svg" width="1440" height="768" fill="none" viewBox="0 0 1440 768">
    <path fill="#84A6FC" d="M407.527 69.76c-30.802.767-60.407-12.648-90.91-17.63-30.503-4.983-65.192 1.15-84.63 31.428-18.242 28.362-18.541 71.671-38.876 97.733-21.532 27.596-57.716 25.679-81.64 49.825-28.11 28.362-30.503 80.487-41.269 124.179-15.251 62.856-51.137 113.831-85.826 162.506-8.373 11.498-19.14 24.146-31.101 19.93-12.86-4.599-16.149-25.679-17.046-42.926-8.074-136.06-16.148-272.504-24.223-408.564-3.588-61.323-5.98-128.779 23.625-177.454 34.39-56.34 97.788-64.005 153.71-66.688 72.669-3.833 145.636-7.666 218.305-11.498 40.072-1.917 80.742-4.216 119.917 6.898 43.063 11.882 116.33 51.358 98.387 119.964C510.1 19.935 458.963 68.61 407.527 69.76z"/>
    <path fill="#376FFF" d="M121.937-9.96c-14.055 41.777-11.065 89.686-5.682 134.528 5.383 45.226 12.261 91.218 5.682 135.677-7.775 51.358-32.596 95.051-49.343 142.576-16.746 47.525-23.924 107.698 1.495 148.708 43.063 68.605 144.739 33.344 182.718 106.932 22.13 42.926 12.261 108.465 43.661 140.66 20.933 21.463 51.137 17.247 77.752 21.846 26.615 4.599 57.118 31.428 49.941 64.772-6.579 30.662-37.979 36.794-62.8 36.411-148.626-.383-297.253-.383-445.879-.767-21.531-252.574-28.11-507.064-20.335-761.171 2.093-68.988 5.98-140.276 32.596-200.45 26.615-59.79 75.659-102.332 128.89-111.531 28.708-4.982 107.357-1.15 123.207 39.477 14.055 37.177-50.539 68.222-61.903 102.333z" opacity=".8"/>
    <path fill="#97D3D3" d="M442.216 685.29c-42.764 14.947-88.219 9.198-132.478 6.515-44.259-2.683-91.209-.766-129.487 27.595-28.41 21.08-50.838 55.574-81.341 70.905-22.728 11.115-47.548 11.115-71.771 11.881-24.223 1.15-49.642 3.833-70.276 19.93-20.635 16.481-34.69 50.209-26.017 79.337 11.662 38.71 51.436 44.842 83.733 44.459 149.523-.766 299.047-1.916 448.57-2.683 45.455-.383 95.695-2.683 128.89-42.926 33.493-40.626 37.679-109.231 22.727-165.189-9.569-35.26-40.072-122.262-74.164-126.095-21.232-2.299-30.203 24.529-44.259 40.243-15.849 16.864-34.39 29.129-54.127 36.028z"/>
    <path fill="#000" d="M-8.448 448.429c-16.746-38.327-21.232-86.618-12.56-132.611 8.673-45.992 29.905-86.618 58.315-110.764 4.784-4.216 9.868-8.049 14.952-11.882 14.653-11.114 30.204-22.612 38.577-41.776 5.682-13.031 7.476-28.745 9.27-43.692 1.496-12.265 2.991-25.296 6.579-37.177 17.644-54.808 73.267-62.09 90.014-62.857 12.859-.766 25.718 0 38.278.767 22.727 1.15 46.352 2.3 68.78-4.6 34.989-10.73 67.585-51.74 61.006-95.05l1.495-.383c6.878 44.842-26.615 86.619-62.202 97.35-22.428 6.899-46.053 5.75-69.079 4.6-12.56-.767-25.419-1.15-38.278-.767-16.448.766-71.473 8.049-88.518 61.706-3.589 11.498-5.084 24.146-6.579 36.794-1.795 15.331-3.589 30.661-9.57 44.459-8.672 19.547-23.924 31.045-38.876 42.16-5.084 3.832-10.168 7.665-14.952 11.498-59.51 50.591-80.145 160.972-45.455 240.692l-1.197 1.533zM552.565 834.764c-31.998 0-63.996-22.229-87.322-43.309-6.878-6.132-13.457-12.648-20.335-19.163-26.316-25.296-53.231-51.358-85.229-59.79-35.287-9.582-71.771 3.449-102.872 17.63-5.981 2.683-12.261 5.749-18.242 8.432-26.615 12.648-54.127 25.679-82.836 28.745-31.399 3.449-72.668-6.899-94.798-46.759-6.878-12.648-11.363-27.595-15.55-41.776-3.589-11.881-7.177-23.763-12.26-34.877-11.365-24.913-35.887-42.543-53.83-28.746l-.896-1.533c18.54-14.181 43.96 3.833 55.622 29.512 5.084 11.115 8.673 23.379 12.261 34.877 4.187 14.181 8.673 28.746 15.55 41.393 21.532 39.094 62.202 49.442 93.303 45.609 28.41-3.449 55.922-16.097 82.537-28.745 5.981-2.683 12.261-5.749 18.242-8.432 31.101-14.181 67.884-27.212 103.47-17.63 32.297 8.815 59.511 34.877 85.827 60.173 6.579 6.516 13.457 13.031 20.036 19.164 30.204 27.595 74.463 55.957 114.236 36.793l.598 1.917c-8.373 4.599-17.943 6.515-27.512 6.515z"/>
    <path fill="#C0D2FF" d="M1395.89 577.031c-6.76 32.879 8.8 71.034-4.87 100.057-13.99 29.834-48.26 28.007-70.11 48.506-19.96 18.671-26.57 52.565-31.91 83.414 44.64 1.217 89.13 2.435 133.77 3.653 13.52.406 27.98.406 39.14-9.539 12.26-10.959 17.29-31.052 20.44-49.724 9.43-56.827 14.93-134.558-3.93-189.356-16.51-47.694-72.47-35.719-82.53 12.989z"/>
    <path fill="#000" d="M1400.42 818.725c10.85-15.693 8.49-39.335 3.15-54.825-4.25-12.025-10.53-22.827-16.5-33.221-2.83-4.688-5.66-9.579-8.17-14.471-10.37-19.769-14.62-37.704-12.26-53.398 2.51-17.528 12.73-30.979 22.47-44.023 10.06-13.451 20.59-27.31 22.79-45.653 2.04-16.713-3.46-32.814-8.65-48.303-2.98-8.764-5.97-17.732-7.7-26.903-5.18-26.7 1.42-56.456 16.66-75.614s38.18-26.903 58.61-19.566l.16-1.019c-20.74-7.337-44 .408-59.4 19.77-15.4 19.362-22 49.526-16.81 76.632 1.73 9.172 4.87 18.14 7.85 26.903 5.5 16.101 10.53 31.183 8.65 47.692-2.2 17.935-12.57 31.794-22.63 45.042-9.9 13.248-20.11 26.699-22.79 44.635-2.35 15.897 1.89 34.24 12.42 54.213 2.67 4.892 5.5 9.783 8.33 14.674 6.12 10.395 12.25 20.993 16.5 33.018 5.18 15.285 7.54 38.52-2.99 53.806l.31.611z"/>
</svg>
