<svg xmlns="http://www.w3.org/2000/svg" width="390" height="321" fill="none" viewBox="0 0 390 321">
    <path fill="#FFF1DF" fill-rule="evenodd" d="M10.567 299.156l-.282-12.441h10.512v-11.848H375.16v11.848h8.403v12.488H390v12.49H0v-12.49h10.567v-.047zM38.215 86.859H20.797L200.09.885l179.293 85.974h-19.685v188.008H38.215V86.859z" clip-rule="evenodd"/>
    <path fill="#FFBDB4" fill-rule="evenodd" d="M383.564 299.159H10.568l-.078-3.435h373.074v3.435zm-8.402-12.504H20.799v-3.435h354.363v3.435zM359.7 274.848H38.216v-3.435H359.7v3.435zm0-184.256l-321.484.467v-3.615l321.484-.467v3.615z" clip-rule="evenodd"/>
    <path fill="#FFBDB4" fill-rule="evenodd" d="M359.706 89.69l-47.976 6.924V272.22h-45.113V93.295c-8.393 1.033-29.064 3.598-48.34 6.154v172.772h-45.115V90.871l-48.34 5.743V272.22H79.709V91.541l-41.486 5.073v-7.588s30.513.928 41.486 1.625v-1.014h45.113v-.61h53.221l-1.616.61h41.85v1.07l48.34-.99v-.08h45.113v-.61l47.976.606v.057z" clip-rule="evenodd"/>
    <path fill="#FFCF84" d="M200.111 74.826c15.757 0 28.531-12.773 28.531-28.53 0-15.757-12.774-28.53-28.531-28.53-15.756 0-28.53 12.773-28.53 28.53 0 15.757 12.774 28.53 28.53 28.53z"/>
    <path fill="#FD9909" fill-rule="evenodd" d="M200.097 24.035c12.282 0 22.254 9.971 22.254 22.253 0 12.283-9.972 22.254-22.254 22.254-.499 0-.904.405-.904.904s.405.904.904.904c13.28 0 24.062-10.782 24.062-24.062 0-13.28-10.782-24.061-24.062-24.061-.499 0-.904.405-.904.904s.405.904.904.904z" clip-rule="evenodd"/>
    <path fill="#FD9909" fill-rule="evenodd" d="M200.104 68.542c-12.283 0-22.255-9.971-22.255-22.254 0-12.282 9.972-22.253 22.255-22.253.499 0 .904-.405.904-.904 0-.5-.405-.904-.904-.904-13.281 0-24.062 10.781-24.062 24.061s10.781 24.062 24.062 24.062c.499 0 .904-.405.904-.904s-.405-.904-.904-.904z" clip-rule="evenodd"/>
    <path fill="#FD9909" fill-rule="evenodd" d="M203.517 74.623l-.584-4.7c-.061-.495.291-.947.787-1.009.495-.061.945.29 1.008.786l.577 4.65c-.589.11-1.186.2-1.788.273zm5.335-1.17l-1.616-4.77c-.159-.472.094-.986.567-1.146.472-.16.986.094 1.145.566l1.607 4.739c-.559.22-1.126.425-1.703.61zM184.355 70.1l2.513-4.132c.258-.427.815-.562 1.242-.303.426.26.562.816.303 1.242l-2.52 4.143c-.524-.301-1.037-.618-1.538-.95zm39.201-7.591l-4.152-3.073c-.4-.297-.485-.864-.188-1.265.296-.4.862-.485 1.264-.188l4.06 3.004c-.311.518-.64 1.026-.984 1.522zm-50.588-7.318l4.879-2.196c.454-.205.991-.002 1.195.453.204.455.002.99-.454 1.195l-5 2.251c-.224-.56-.432-1.127-.62-1.703zm54.799-15.813c.144.582.273 1.172.381 1.767l-4.81 1.135c-.485.114-.973-.187-1.087-.672-.115-.486.186-.973.671-1.088l4.845-1.142zm-51.26-9.146l4.299 2.812c.418.273.535.834.262 1.251-.273.417-.833.535-1.251.262l-4.28-2.8c.307-.52.632-1.028.97-1.525zm2.806-3.488l3.496 2.571c.402.296.488.862.192 1.264-.295.402-.862.488-1.264.193l-3.624-2.668c.385-.465.786-.92 1.2-1.36zm37.26-3.724c.492.349.973.713 1.441 1.092l-3.126 3.941c-.311.391-.88.456-1.271.146-.39-.31-.455-.879-.146-1.27l3.102-3.91zm-4.841-2.77c.551.247 1.094.512 1.625.792l-2.204 4.134c-.235.44-.782.607-1.224.372-.439-.235-.605-.783-.37-1.223l2.173-4.075zm-18.047-1.761l1.272 4.537c.134.48-.146.98-.627 1.115s-.98-.146-1.113-.626l-1.28-4.566c.575-.17 1.157-.325 1.748-.46z" clip-rule="evenodd"/>
    <path fill="#FD9909" d="M192.1 53.885c2.343 1.601 5.122 2.236 8.376 1.979 3.881-.392 5.825-1.842 5.957-4.363.039-2.049-1.23-3.168-3.809-3.358-1.207-.045-2.498-.082-3.913-.146-2.537-.156-4.481-.867-5.79-2.098-1.35-1.267-1.985-2.907-1.946-4.918.046-2.397.918-4.406 2.699-6.034 1.697-1.621 4.089-2.572 7.136-2.888 3.712-.26 6.906.414 9.583 1.985l-2.57 3.668c-2.185-1.152-4.633-1.662-7.302-1.458-1.377.125-2.551.54-3.482 1.281-.972.745-1.492 1.796-1.56 3.114-.015.812.305 1.477.96 2.074.655.596 1.732.923 3.187 1.06.79.045 1.914.097 3.329.123 2.789.093 4.816.835 6.122 2.222 1.265 1.351 1.9 2.992 1.862 4.963-.227 5.27-3.783 8.256-10.586 8.952-4.381.398-8.153-.532-11.276-2.757l3.023-3.4z"/>
    <path fill="#FD9909" fill-rule="evenodd" d="M199.839 28.14l-3.878 35.738 1.875-.095 3.878-35.737-1.875.095zM203.637 28.261L199.759 64l1.874-.095 3.879-35.738-1.875.095z" clip-rule="evenodd"/>
    <path fill="#fff" fill-rule="evenodd" d="M91.098 182.598l4.79 35.004-31.074 7.697-4.653-35.554 30.937-7.147z" clip-rule="evenodd"/>
    <path fill="#000" fill-rule="evenodd" d="M60.808 190.4l2.48 18.953c.064.491-.281.974-.773 1.082-.49.106-.94-.205-1.006-.694l-2.594-19.831c-.063-.486.276-.967.762-1.079l30.892-7.137c.237-.056.478-.014.668.115.19.13.316.335.35.57l2.348 17.171c.067.49-.278.976-.767 1.085-.492.111-.943-.199-1.01-.687l-2.227-16.277-29.123 6.729z" clip-rule="evenodd"/>
    <path fill="#000" fill-rule="evenodd" d="M95.275 216.97l-2.314-16.92c-.067-.49.276-.975.767-1.085.49-.109.942.199 1.01.687l2.433 17.787c.066.481-.265.96-.747 1.08l-31.018 7.685c-.24.06-.484.02-.678-.11-.195-.129-.322-.338-.354-.577l-2.051-15.676c-.064-.491.283-.975.773-1.082.491-.107.942.204 1.006.694l1.931 14.762 29.242-7.245z" clip-rule="evenodd"/>
    <path fill="#000" fill-rule="evenodd" d="M92.568 215.426l-.323-2.264-24.982 5.646.324 2.265 24.98-5.647zm-.722-5.206l-.324-2.263-24.982 5.647.325 2.263 24.98-5.647zm-.723-5.204l-.325-2.265-24.98 5.647.324 2.265 24.98-5.647zm-.723-5.204l-.324-2.265-24.98 5.647.323 2.264 24.981-5.646zm-.723-5.205l-.324-2.264-24.981 5.647.324 2.264 24.98-5.647zm-.723-5.204l-.324-2.264-24.981 5.646.325 2.263 24.98-5.645z" clip-rule="evenodd"/>
    <path fill="#fff" fill-rule="evenodd" d="M97.042 179.29l15.963 29.288-25.862 21.234-16.02-29.845 25.919-20.677z" clip-rule="evenodd"/>
    <path fill="#000" fill-rule="evenodd" d="M113.36 208.493l-5.745-10.541c-.179-.326-.056-.805.274-1.064.331-.261.744-.206.922.123l6.062 11.12c.175.324.06.792-.261 1.055l-25.859 21.233c-.16.132-.35.193-.526.171-.176-.022-.325-.125-.411-.287l-6.79-12.647c-.176-.33-.051-.806.28-1.065.331-.258.744-.2.92.13l6.46 12.034 24.674-20.262z" clip-rule="evenodd"/>
    <path fill="#000" fill-rule="evenodd" d="M71.183 200.125l8.925 16.622c.177.328.051.807-.28 1.064-.332.259-.745.2-.922-.128l-9.24-17.212c-.176-.326-.054-.8.272-1.06l25.949-20.694c.159-.127.346-.186.52-.163.175.021.32.124.407.282l9.912 18.182c.179.329.056.806-.275 1.067-.33.259-.744.204-.923-.125l-9.585-17.582-24.76 19.747z" clip-rule="evenodd"/>
    <path fill="#000" fill-rule="evenodd" d="M109.909 208.588l-1.146-1.893-20.934 15.885 1.147 1.893 20.933-15.885zm-2.616-4.363l-1.146-1.891-20.935 15.886 1.148 1.891 20.933-15.886zm-2.617-4.36l-1.147-1.893-20.933 15.885 1.147 1.894 20.933-15.886zm-2.616-4.36l-1.147-1.893-20.933 15.885 1.147 1.893 20.933-15.885zm-2.617-4.361l-1.147-1.893-20.933 15.886 1.147 1.893 20.933-15.886zm-2.617-4.36l-1.146-1.893-20.934 15.885 1.148 1.892 20.932-15.884z" clip-rule="evenodd"/>
    <path fill="#FFCF84" d="M65.2 312.346c13.201 0 23.903-10.988 23.903-24.543S78.4 263.26 65.2 263.26c-13.201 0-23.903 10.988-23.903 24.543S52 312.346 65.2 312.346z"/>
    <path fill="#FD9909" fill-rule="evenodd" d="M65.206 268.674c10.289 0 18.643 8.578 18.643 19.143 0 10.566-8.354 19.144-18.644 19.144-.418 0-.757.348-.757.777 0 .43.34.778.758.778 11.125 0 20.158-9.275 20.158-20.699 0-11.424-9.033-20.699-20.159-20.699-.418 0-.757.349-.757.778 0 .429.34.778.758.778z" clip-rule="evenodd"/>
    <path fill="#FD9909" fill-rule="evenodd" d="M65.194 306.961c-10.291 0-18.646-8.578-18.646-19.144 0-10.565 8.355-19.143 18.646-19.143.418 0 .757-.349.757-.778 0-.429-.34-.778-.757-.778-11.127 0-20.159 9.275-20.159 20.699 0 11.424 9.032 20.699 20.159 20.699.418 0 .757-.348.757-.778 0-.429-.34-.777-.757-.777z" clip-rule="evenodd"/>
    <path fill="#FD9909" fill-rule="evenodd" d="M68.097 312.152l-.49-4.043c-.05-.426.245-.815.66-.868.415-.053.792.25.845.676l.483 4.001c-.494.094-.994.172-1.498.234zm4.47-1.007l-1.354-4.103c-.134-.406.078-.848.475-.986.395-.137.825.081.959.487l1.346 4.077c-.468.19-.943.365-1.426.525zm-20.524-2.884l2.105-3.555c.217-.366.683-.483 1.04-.26.358.223.472.702.255 1.068l-2.111 3.564c-.44-.259-.87-.531-1.289-.817zm32.843-6.53l-3.48-2.644c-.334-.255-.405-.742-.157-1.087.249-.345.723-.418 1.059-.163l3.402 2.585c-.26.446-.536.882-.824 1.309zm-42.383-6.296l4.088-1.889c.38-.176.83-.001 1 .39.172.392.002.852-.38 1.029l-4.189 1.936c-.187-.481-.362-.97-.52-1.466zm45.91-13.602c.121.501.229 1.008.32 1.52l-4.03.976c-.406.098-.815-.161-.91-.578-.098-.418.155-.837.561-.936l4.06-.982zm-42.945-7.868l3.602 2.419c.35.235.448.717.22 1.076-.23.359-.699.46-1.048.225l-3.587-2.409c.258-.447.53-.884.813-1.311zm2.351-3l2.93 2.211c.335.255.408.742.16 1.087-.247.346-.723.42-1.059.166l-3.037-2.294c.323-.401.66-.791 1.006-1.17zm31.216-3.205c.412.301.815.614 1.207.941l-2.618 3.39c-.261.336-.738.392-1.065.125-.327-.266-.382-.756-.123-1.092l2.6-3.364zm-4.056-2.382c.462.213.916.44 1.362.681l-1.846 3.556c-.197.379-.656.522-1.026.32-.368-.202-.507-.673-.31-1.052l1.82-3.505zm-15.12-1.515l1.067 3.903c.112.414-.123.843-.526.959-.403.116-.82-.125-.933-.539l-1.072-3.927c.482-.147.97-.279 1.464-.396z" clip-rule="evenodd"/>
    <path fill="#FFCF84" d="M150.327 293.83c4.445 13.566 17.554 22.544 29.279 20.053 11.725-2.491 17.626-15.508 13.181-29.074-4.445-13.566-17.554-22.544-29.279-20.053-11.725 2.491-17.627 15.508-13.181 29.074z"/>
    <path fill="#FD9909" fill-rule="evenodd" d="M187.824 284.568c3.587 11.018-1.213 21.618-10.712 23.654-9.5 2.036-20.124-5.258-23.711-16.277-.146-.447-.577-.744-.963-.661-.386.083-.581.513-.435.961 3.878 11.914 15.365 19.8 25.637 17.599 10.271-2.202 15.461-13.662 11.582-25.576-.145-.448-.577-.744-.963-.661-.385.082-.58.513-.435.961z" clip-rule="evenodd"/>
    <path fill="#FD9909" fill-rule="evenodd" d="M155.281 294.092c-3.588-11.02 1.212-21.619 10.712-23.655 9.499-2.036 20.124 5.258 23.711 16.278.146.447.577.743.963.661.386-.083.581-.513.435-.961-3.878-11.915-15.366-19.8-25.637-17.599-10.271 2.202-15.461 13.661-11.583 25.576.146.448.578.744.963.661.386-.083.581-.513.436-.961z" clip-rule="evenodd"/>
    <path fill="#FD9909" fill-rule="evenodd" d="M150.583 297.152l3.47-1.318c.365-.139.804.08.978.487.175.408.02.849-.345.99l-3.433 1.302c-.236-.478-.459-.966-.67-1.461zm2.273 4.298l3.257-2.201c.323-.217.784-.094 1.028.278.245.371.182.849-.141 1.066l-3.236 2.188c-.314-.433-.617-.876-.908-1.331zm-3.714-21.27l3.828 1.396c.394.144.642.59.552.996-.09.406-.484.618-.879.474l-3.838-1.401c.098-.495.21-.984.337-1.465zm15.92 31.765l1.299-4.045c.126-.389.54-.56.925-.381.385.18.596.643.471 1.034l-1.271 3.955c-.479-.171-.954-.36-1.424-.563zm-7.366-43.995l2.945 3.735c.274.347.256.836-.042 1.088-.298.252-.762.175-1.037-.173l-3.018-3.827c.373-.288.756-.563 1.152-.823zm26.26 43.492c-.412.224-.832.436-1.263.632l-2.11-3.863c-.213-.389-.106-.854.238-1.035.344-.183.797-.013 1.01.376l2.125 3.89zm-6.131-44.882l-1.061 4.123c-.103.4-.504.598-.896.441-.391-.157-.626-.61-.523-1.01l1.056-4.106c.479.168.954.354 1.424.552zm3.406 1.757l-1.081 3.403c-.124.391-.538.563-.924.383-.385-.178-.597-.642-.473-1.033l1.123-3.528c.457.244.91.503 1.355.775zm12.444 30.804c-.142.477-.299.947-.471 1.408l-3.838-1.947c-.381-.194-.577-.663-.439-1.047.138-.385.56-.539.94-.347l3.808 1.933zm.889-4.573c-.049.509-.113 1.013-.192 1.511l-3.75-1.135c-.399-.121-.668-.555-.601-.968.068-.412.447-.649.847-.528l3.696 1.12zm-3.282-15.545l-3.167 1.87c-.336.197-.792.048-1.019-.334-.228-.382-.14-.853.196-1.05l3.186-1.882c.28.456.548.92.804 1.396z" clip-rule="evenodd"/>
    <path fill="#000" fill-rule="evenodd" d="M117.344 109.918c-.063-.098-2.523-.008-2.714-.02-2.881-.179-5.758-.461-8.625-.79-9.53-1.094-20.9-1.846-28.763-7.922-8.946-6.912-1.41-17.066 8.388-15.188 12.08 2.316 21.229 14.283 31.606 20.25" clip-rule="evenodd"/>
    <path fill="#ABD1CE" d="M127.193 121.614c6.485 0 11.742-5.257 11.742-11.742 0-6.485-5.257-11.742-11.742-11.742-6.484 0-11.741 5.257-11.741 11.742 0 6.485 5.257 11.742 11.741 11.742z"/>
    <path fill="#000" fill-rule="evenodd" d="M122.075 114.384l-3.837 3.079c-1.737-2.047-2.786-4.697-2.786-7.591 0-6.481 5.261-11.742 11.742-11.742 6.001 0 10.956 4.511 11.657 10.325-1.963-.23-3.594-1.442-4.91-3.592-.11 4.381-3.965 6.053-8.614 6.912-.195-1.115-1.189-1.965-2.385-1.965-1.335 0-2.42 1.06-2.42 2.365 0 1.007.645 1.868 1.553 2.209z" clip-rule="evenodd"/>
    <path fill="#E9673C" fill-rule="evenodd" d="M199.376 175.539s50.231-53.003 80.965-50.88c4.924.34 18.954 2.248 32.509 12.136 9.78 7.133 18.139 15.35 26.25 23.73 3.968 4.102 5.738 9.854 4.758 15.476-.978 5.624-4.586 10.44-9.709 12.96-7.378 3.636-16.872 7.109-28.525 9.063l3.361 6.074c.672 1.216.663 2.693-.024 3.901-1.061 1.81-3.055 4.565-6.513 7.3l-.385 2.513c-.089.576-.403 1.093-.875 1.437-.472.345-1.059.486-1.636.394-.881-.139-1.551-.862-1.627-1.75-.044-.539-.018-1.108.076-1.564 0 0 2.234-15.388-9.916-28.123 0 0-3.342-5.241 1.77-8.605l19.108-11.505-11.938-10.041s-2.558 12.572-17.104 15.327c-6.264 1.188-18.083 1.558-25.379-9.556 0 0-37.951 30.157-47.928 42.081 0 0-1.518 1.454-2.841.512-.742-.528-1.721-1.623-.633-3.283 0 0-1.786 1.613-3.359.537-1.049-.718-1.857-2.124-.777-3.776 0 0-1.826 1.67-3.475.489-1.11-.797-1.367-2.201-.821-3.803 0 0-1.93 1.916-3.574.804-1.149-.777-1.704-2.393-.92-3.568l7.293-10.469 1.869-7.811z" clip-rule="evenodd"/>
    <path fill="#D9512E" fill-rule="evenodd" d="M301.926 218.369c-.005-.062 0-.123.011-.186 1.804-9.18.181-18.89.181-18.89-.065-.394.201-.766.595-.833.392-.065.766.2.831.595 0 0 .422 2.527.604 6.242l2.473.69c.383.109.609.507.501.892-.107.385-.506.609-.891.5l-2.023-.566c.058 2.179.022 4.657-.219 7.219-.474.427-.98.855-1.522 1.283l-.385 2.513c-.029.188-.081.369-.156.541z" clip-rule="evenodd"/>
    <path fill="#D84B26" fill-rule="evenodd" d="M220.113 156.072c17.376-14.881 42.162-32.661 60.218-31.413 4.925.34 18.955 2.248 32.51 12.136 9.78 7.133 18.139 15.35 26.25 23.73 3.968 4.102 5.738 9.854 4.758 15.476-.978 5.624-4.586 10.44-9.709 12.96-3.639 1.794-7.792 3.547-12.467 5.098l-17.09-23.331 4.371-2.632-11.939-10.041s-2.558 12.572-17.103 15.327c-6.264 1.188-18.083 1.558-25.379-9.556 0 0-7.448 5.917-16.614 13.549l-17.806-21.303z" clip-rule="evenodd"/>
    <path fill="#D9512E" fill-rule="evenodd" d="M200.744 204.061l2.111-2.944c.232-.325.685-.399 1.009-.166.324.233.398.685.166 1.009 0 0-.996 1.327-.913 1.202 0 0-1.124 1.016-2.373.899zm-4.191-3.24l2.177-3.032c.231-.323.685-.397 1.009-.166.323.233.397.685.166 1.011l-.929 1.294c-.085.076-1.183 1.03-2.423.893zm-4.474-3.066l2.399-3.344c.233-.324.685-.4 1.009-.167.325.234.399.685.166 1.009l-.982 1.37c-.144.138-1.328 1.228-2.592 1.132z" clip-rule="evenodd"/>
    <path fill="#E9673C" d="M277.946 121.495c5.97 0 10.809-4.839 10.809-10.809 0-5.969-4.839-10.808-10.809-10.808-5.969 0-10.808 4.839-10.808 10.808 0 5.97 4.839 10.809 10.808 10.809z"/>
    <path fill="#000" fill-rule="evenodd" d="M272.564 101.304c1.58-.907 3.413-1.426 5.365-1.426 5.966 0 10.809 4.843 10.809 10.808 0 4.004-2.182 7.502-5.42 9.369l-3.443-6.006c.706.218 1.524.145 2.247-.266 1.328-.756 1.835-2.374 1.131-3.61-.703-1.236-2.353-1.626-3.682-.869-.727.414-1.21 1.086-1.379 1.812l-5.628-9.812z" clip-rule="evenodd"/>
    <path fill="#76200A" fill-rule="evenodd" d="M308.71 167.913l.04-.023 5.986 5.089c.13.11.16.296.074.443-.087.146-.268.209-.425.146l-8.853-3.435 3.392-2.041-.214-.179zm-55.258-3.252l8.522-7.243c.222-.19.548-.202.785-.028.235.174.321.487.206.757l-4.419 10.383c-1.446-1.276-2.809-2.827-4.044-4.707 0 0-.372.294-1.05.838zm43.555-6.592c.687-2.813 1.397-7.404 1.128-13.096-.013-.245.15-.464.387-.525.236-.061.484.052.593.272 1.54 3.16 3.955 9.638 2.832 17.506l-4.94-4.157z" clip-rule="evenodd"/>
    <path fill="url(#paint0_linear)" fill-rule="evenodd" d="M219.329 312.129s2.609-5.606 7.945-6.595c3.231-34.736 9.524-68.621 20.247-103.405 4.245-13.744 18.096-22.141 32.245-19.549 4.084.747 7.935 2.383 10.959 5.398 1.342 1.34 10.977 13.154 7.34 31.609-1.154 5.846-3.507 12.725-5.143 17.284l32.295 38.621c.248.295.281.716.084 1.049l-21.347 35.77s-3.27-3.153-2.048-9.673l-23.817-26.121s-12.101 29.214-14.283 34.478c-.203.49-.678.81-1.208.814-6.199.047-43.269.32-43.269.32z" clip-rule="evenodd"/>
    <path fill="#D9512E" fill-rule="evenodd" d="M227.547 302.512l39.236 1.251-.591 1.428-38.784-1.236c.045-.481.092-.964.139-1.443zm92.18-33.577l-18.521 32.943-1.025-1.125 18.554-33.006.992 1.188zm-26.424-33.184l-.396 1.11 1.316 1.573-14.874 39.469-1.275-1.397-1.455 3.514 16.684-44.269zm-7.582-51.288c.544.262 1.077.55 1.596.862.195.846.609 1.803 1.396 2.788 1.254 1.569 10.785 9.187 9.144 27.943-.098 1.117.043 1.995.352 2.664-.051.282-.103.57-.161.857-.069.354-.143.712-.222 1.074-.105-.105-.208-.213-.306-.333-.781-.936-1.283-2.352-1.104-4.389 1.582-18.07-7.624-25.401-8.831-26.912-1.331-1.663-1.783-3.267-1.864-4.554z" clip-rule="evenodd"/>
    <path fill="url(#paint1_linear)" fill-rule="evenodd" d="M148.333 233.292c-8.219 34.075-29.504 72.72-29.504 72.72 3.952-.385 8.34 6.307 8.34 6.307H75.754c-.68 0-1.314-.342-1.688-.909-.374-.568-.438-1.285-.17-1.909 14.29-33.661 25.06-76.317 26.441-82.82 9.495-44.689 25.945-45.116 33.046-43.726 2.018.394 3.842.973 5.476 1.717 17.006 3.663 43.218 15.5 57.579 26.267 4.507 3.404 6.658 9.095 5.527 14.629-2.457 12.094-7.535 23.244-13.45 35.56 5.844 3.059 7.33 6.841 7.33 6.841s-30.188-2.352-37.357-2.909c-.38-.03-.729-.224-.955-.531-.226-.306-.307-.696-.222-1.068l5.58-24.577c-5.197-1.392-10.118-3.16-14.558-5.592z" clip-rule="evenodd"/>
    <path fill="#8ABBB8" fill-rule="evenodd" d="M79.882 294.324l43.685 2.523c-.308.615-.605 1.201-.889 1.761l-43.46-2.511c.223-.589.444-1.18.664-1.773zm111.012-38.258l-31.898-.152.41-1.806 32.329.154c-.277.598-.557 1.2-.841 1.804zm-58.572-73.291c.363.051.708.11 1.034.175 2.018.395 3.842.973 5.476 1.718.698.15 1.41.314 2.137.492 1.712 1.339 3.498 3.098 5.141 5.401 5.277 7.399 9.124 20.515 3.755 43.542-.526-.264-1.045-.535-1.558-.815-.364 1.506-.753 3.021-1.163 4.537-.018-.119-.013-.244.02-.367 6.517-24.596 2.858-38.299-2.525-45.846-5.239-7.347-12.044-8.736-12.044-8.736-.099-.02-.19-.054-.273-.101zM160.91 238.31v-.009s5.743 1.679 11.452 2.402c.304.029.544.275.566.581.023.305-.176.584-.474.658-3.577.911-8.782 2.234-10.866 2.764l1.325-5.836c-.673-.181-1.34-.367-2.003-.56z" clip-rule="evenodd"/>
    <path fill="#ABD1CE" fill-rule="evenodd" d="M103.156 191.31s.644 1.64 1.736 2.674c.619.586 1.838.848 2.929.118 2.066-1.383 3.597-4.845 3.251-8.589-.089-.969-2.747-8.833-9.623-13.126l6.372-3.654s14.474 16.469 34.85 2.309c0 0 18.687 14.474 46.514 24.723l8.71-12.393s10.751-2.042 12.723-5.148c.298-.468.645-1.712-1.634-1.891-1.031-.081-8.942-1.143-22.939-8.766-3.84-2.093-16.489-8.514-33.352-25.259-3.547-3.522-26.068-26.197-60.78 0-6.093 4.598-30.103 23.209-41.167 40.772-4.588 7.303-3.733 16.77 2.088 23.134 5.325 5.821 14.021 7.072 20.77 2.986 12.174-7.368 29.552-17.89 29.552-17.89z" clip-rule="evenodd"/>
    <path fill="#8ABBB8" fill-rule="evenodd" d="M102.973 191.451l2.783-1.859c.423-.264.981-.135 1.246.288.264.423.136.98-.287 1.245l-2.761 1.729c-.512-.79-.796-1.515-.796-1.515l-.185.112zm94.853-7.953l-.06.087c-.072.013-.11.022-.11.022l-1.362 1.936c-1.534.212-2.812.378-2.812.378-.496.063-.949-.288-1.013-.783-.063-.493.288-.947.781-1.01 0 0 2.415-.311 4.576-.63z" clip-rule="evenodd"/>
    <path fill="#86B8B5" fill-rule="evenodd" d="M96.847 195.101l-23.241 14.088c-6.748 4.091-15.447 2.844-20.774-2.979-5.819-6.362-6.674-15.825-2.088-23.125 11.062-17.563 35.078-36.179 41.17-40.777 34.713-26.197 57.234-3.522 60.781 0 16.863 16.745 29.512 23.166 33.351 25.259 1.971 1.072 3.818 2.016 5.545 2.844l-13.683 20.784c-21.482-9.498-35.235-20.153-35.235-20.153-20.376 14.16-34.85-2.309-34.85-2.309l-6.388 3.69c-7.668-5.577-17.448 1.03-17.448 1.03l12.86 21.648z" clip-rule="evenodd"/>
    <path fill="#1F5753" fill-rule="evenodd" d="M84.166 173.37l-.154.099.917 1.546c-7.761 4.4-15.544 9.135-23.381 13.994-.424.262-.982.132-1.245-.293-.263-.423-.132-.982.292-1.244 7.901-4.899 15.747-9.669 23.571-14.102zm58.115-2.027c1.425-1.364 6.414-6.777 8.019-16.935.035-.218.219-.382.44-.39.222-.008.417.141.468.356.45 2.602.831 7.059-.327 12.493-.536 2.502-1.396 5.214-2.727 8.045-3.532-2.363-5.457-3.854-5.457-3.854-.138.096-.277.191-.416.285zm-39.305.219c-1.626-3.803-1.447-7.24-1.072-9.304.06-.319.314-.566.634-.617.321-.052.64.105.795.391 1.803 3.404 3.531 5.615 4.499 6.726l-4.856 2.804z" clip-rule="evenodd"/>
    <path fill="#ABD1CE" fill-rule="evenodd" d="M215.787 188.684c-.761-.917-.855-2.26-.145-3.287.853-1.236 2.551-1.547 3.787-.692l4.187 2.892c1.235.853 1.546 2.551.691 3.788-.778 1.126-2.256 1.482-3.448.891.662.895.716 2.146.049 3.111-.763 1.106-2.211 1.459-3.38.882.652.879.708 2.112.05 3.062-.748 1.085-2.167 1.432-3.317.87.645.866.7 2.081.054 3.015-.811 1.175-2.424 1.47-3.599.658l-3.353-2.317c-1.174-.812-1.47-2.424-.658-3.598.696-1.005 1.977-1.366 3.069-.94-.737-.884-.828-2.185-.143-3.178.707-1.023 2.012-1.39 3.122-.954-.748-.901-.84-2.224-.142-3.233.719-1.041 2.046-1.413 3.176-.97z" clip-rule="evenodd"/>
    <path fill="#8ABBB8" fill-rule="evenodd" d="M209.182 194.877l7.374 5.328c-.716.352-1.575.371-2.32.005.049.065-4.526-3.196-4.487-3.181-.5-.6-.703-1.394-.567-2.152zm2.957-4.081l.04.027 7.533 5.441c.023.016.045.034.065.054-.71.318-1.547.318-2.274-.039.076.103-4.865-3.419-4.774-3.383-.489-.587-.698-1.356-.59-2.1zm3.032-4.283c.032.016.063.036.094.058l7.533 5.441c.128.092.217.219.262.358-.705.284-1.517.268-2.225-.085.043.06-5.095-3.601-5.073-3.592-.506-.611-.718-1.41-.591-2.18z" clip-rule="evenodd"/>
    <path fill="#000" fill-rule="evenodd" d="M297.411 277.7c0-1.15-.931-2.081-2.079-2.081h-51.496c-1.148 0-2.079.931-2.079 2.081v35.866h55.654V277.7z" clip-rule="evenodd"/>
    <path fill="#000" fill-rule="evenodd" d="M259.24 275.643v-5.007c0-.944.767-1.709 1.71-1.709h17.272c.943 0 1.708.765 1.708 1.709v5.007h-3.417v-3.299h-13.854v3.299h-3.419z" clip-rule="evenodd"/>
    <path fill="#fff" fill-rule="evenodd" d="M296.899 276.343c.318.365.512.842.512 1.365v.482l-25.524 17.823c-1.383.965-3.223.967-4.608.004l-25.522-17.767v-.542c0-.505.179-.968.477-1.327l26.079 18.152c.763.531 1.777.529 2.538-.002l26.048-18.188z" clip-rule="evenodd"/>
    <defs>
        <linearGradient id="paint0_linear" x1="272.479" x2="206.995" y1="247.179" y2="94.365" gradientUnits="userSpaceOnUse">
            <stop stop-color="#E9673C"/>
            <stop offset="1" stop-color="#FFBDB4"/>
        </linearGradient>
        <linearGradient id="paint1_linear" x1="148.559" x2="245.848" y1="276.674" y2="201.61" gradientUnits="userSpaceOnUse">
            <stop stop-color="#ABD1CE"/>
            <stop offset=".52" stop-color="#BFDCD9"/>
            <stop offset="1" stop-color="#fff"/>
        </linearGradient>
    </defs>
</svg>
