<svg xmlns="http://www.w3.org/2000/svg" width="420" height="320" fill="none" viewBox="0 0 420 320">
    <path fill="#FFAFA4" d="M382.147 182.657h-153.15v123.987h153.15V182.657z"/>
    <path fill="#FFF1E2" fill-rule="evenodd" d="M273.242 239.533h-23.98v52.074h23.98v-52.074zm94.07 2.47h-23.981v49.604h23.981v-49.604zm-31.355-13.894h-23.983v63.498h23.983v-63.498zm-31.357-17.78h-23.983v81.278H304.6v-81.278zm55.965 23.505h-10.797v5.899h10.797v-5.899zm-94.376-2.292h-10.797v5.896h10.797v-5.896zm63.175-11.039h-10.797v5.898h10.797v-5.898zm-31.745-18.189h-10.795v5.898h10.795v-5.898z" clip-rule="evenodd"/>
    <path fill="#DC5D3C" fill-rule="evenodd" d="M318.482 282.207l47.124-50.953c.672-.727 1.802-.762 2.519-.078.715.687.749 1.835.077 2.563l-48.591 52.539c-.364.392-.879.6-1.405.568-.529-.033-1.018-.303-1.329-.738l-33.765-46.809-36.048 48.752c-.593.8-1.709.963-2.495.36-.787-.6-.946-1.738-.354-2.538l37.488-50.704c.34-.46.872-.728 1.435-.725.564.003 1.093.279 1.427.741l33.917 47.022z" clip-rule="evenodd"/>
    <path fill="#FFAFA4" fill-rule="evenodd" d="M295.387 66.655c-.187-.524-.288-1.089-.288-1.677 0-2.756 2.236-4.993 4.993-4.993 2.755 0 4.993 2.237 4.993 4.993 0 2.756-2.238 4.994-4.993 4.994-.67 0-1.308-.133-1.894-.372l-49.974 58.434c.32.658.501 1.398.501 2.179 0 2.756-2.239 4.993-4.993 4.993-2.757 0-4.993-2.237-4.993-4.993 0-.137.004-.272.016-.405l-4.76-3.304c-.847.658-1.908 1.049-3.061 1.049-.559 0-1.095-.092-1.596-.261l-50.484 66.532c.154.482.237.995.237 1.527 0 2.755-2.236 4.993-4.993 4.993s-4.993-2.238-4.993-4.993c0-.269.02-.532.061-.788l-31.118-31.189c-.695.367-1.487.576-2.328.576-.502 0-.988-.075-1.446-.215l-54.19 84.363c.442.746.696 1.615.696 2.544 0 2.755-2.238 4.993-4.994 4.993s-4.993-2.238-4.993-4.993c0-2.756 2.237-4.995 4.993-4.995.34 0 .672.035.993.1l54.406-84.7c-.293-.636-.457-1.345-.457-2.09 0-2.757 2.238-4.995 4.992-4.995 2.757 0 4.995 2.238 4.995 4.995 0 .415-.052.82-.147 1.207l30.883 30.954c.767-.482 1.675-.76 2.647-.76.707 0 1.379.146 1.989.412l50.26-66.236c-.262-.606-.408-1.273-.408-1.974 0-2.756 2.239-4.994 4.995-4.994 2.755 0 4.993 2.238 4.993 4.994 0 .116-.004.232-.012.346l4.799 3.33c.838-.638 1.883-1.017 3.018-1.017.486 0 .956.07 1.399.2l50.256-58.764z" clip-rule="evenodd"/>
    <path fill="#FFF1E2" d="M195.293 24.183H36.613V144.05h158.68V24.183z"/>
    <path fill="#FFAFA4" fill-opacity=".64" fill-rule="evenodd" d="M68.486 44.461H57.688v87.935h10.797V44.461zm21.423-7.849H79.112v95.738h10.797V36.612zm21.423 20.092h-10.796v75.595h10.796V56.704zm21.424-12.472h-10.797v88.012h10.797V44.232zm21.424 24.454h-10.797v63.498h10.797V68.686zm21.422 17.748h-10.797v45.684h10.797V86.434z" clip-rule="evenodd"/>
    <path fill="#E5734E" fill-rule="evenodd" d="M218.047 269.257h-21.572v-28.692h-14.764l25.55-37.052 25.551 37.052h-14.765v28.692z" clip-rule="evenodd"/>
    <path fill="#FFB000" fill-rule="evenodd" d="M335.057 29.79h21.572v28.692h14.764l-25.55 37.051-25.551-37.051h14.765V29.79z" clip-rule="evenodd"/>
    <path fill="#FFCD80" d="M281.297 199.597c19.857 0 35.954-16.373 35.954-36.571 0-20.198-16.097-36.571-35.954-36.571-19.856 0-35.953 16.373-35.953 36.571 0 20.198 16.097 36.571 35.953 36.571z"/>
    <path fill="#FDA31F" fill-rule="evenodd" d="M272.842 138.079l-1.322.48-.655-1.867 2.307-.837c.547-.198 1.134.06 1.315.576l1.107 3.157c2.049-.646 4.095-1.042 6.132-1.187 2.604-.187 5.199.034 7.782.663.292.069.529.262.653.523.122.261.118.566-.013.836l-2.912 5.989c-.219.451-.737.697-1.227.582-2.537-.592-5.136-.572-7.798.061l3.689 10.522c10.197-1.544 16.288 1.115 18.424 7.625 1.175 3.531.814 6.94-1.071 10.212-1.696 3.065-4.483 5.655-8.387 7.743l1.902 5.426c.18.514-.115 1.091-.661 1.289l-2.265.822-.654-1.865 1.281-.465-1.861-5.308c-.166-.473.067-1.005.544-1.24 3.885-1.931 6.654-4.345 8.286-7.293 1.598-2.774 1.896-5.652.903-8.638-1.922-5.857-7.652-7.799-17.024-6.201-.495.083-.965-.18-1.122-.627l-4.315-12.312c-.09-.258-.063-.544.073-.793.136-.248.371-.436.649-.517 3.118-.926 6.162-1.113 9.128-.563l2.005-4.125c-1.976-.375-3.958-.495-5.949-.351-2.174.154-4.352.621-6.542 1.394-.542.193-1.124-.066-1.304-.579l-1.098-3.132zm15.377 37.528c1.29-.931 2.135-1.89 2.49-2.907.215-.651.302-1.328.262-2.028l2.077-.194c.05.949-.072 1.866-.367 2.764-.583 1.666-2.055 3.279-4.502 4.762-.27.164-.597.206-.892.113-.292-.095-.52-.313-.619-.594l-2.313-6.599 1.972-.715 1.892 5.398zm-20.046-22.488c.05-.969.256-1.835.604-2.598l.028-.057c.837-1.574 2.075-2.756 3.706-3.543.267-.128.577-.144.847-.044.271.102.479.312.571.575l1.894 5.404-1.972.715-1.493-4.261c-.705.521-1.269 1.178-1.696 1.971-.245.548-.378 1.169-.415 1.864.001.018-.002.037-.004.055-.079.735.05 1.545.36 2.428l-1.972.716c-.41-1.171-.555-2.247-.458-3.225z" clip-rule="evenodd"/>
    <path fill="#FDA31F" fill-rule="evenodd" d="M271.561 159.727c-1.339-.697-2.294-1.817-2.842-3.378l1.972-.716c.376 1.072 1.01 1.853 1.929 2.329l.033.018c.735.416 1.745.59 3.028.565l-1.742-4.969 1.972-.715 2.184 6.23c.101.289.055.614-.126.88-.179.262-.474.439-.795.473-2.486.258-4.352-.012-5.613-.717zM284.787 165.702l1.566 4.467-1.972.715-1.963-5.599c-.096-.274-.06-.579.097-.836.159-.258.423-.441.723-.501 2.902-.573 5.034-.4 6.41.367l.031.02c1.369.835 2.331 2.024 2.875 3.576.304.868.475 1.712.52 2.527l-2.078.194c-.034-.649-.173-1.318-.414-2.006-.391-1.115-1.073-1.974-2.052-2.577-.863-.474-2.111-.565-3.743-.347z" clip-rule="evenodd"/>
    <path fill="#FDA31F" fill-rule="evenodd" d="M278.495 166.786c-9.837 1.393-15.661-1.234-17.632-7.528-1.235-3.777-.992-7.168.659-10.173 1.512-2.749 4.235-5.191 8.215-7.282l-1.137-3.246c-.181-.515.113-1.093.657-1.291l1.616-.586.654 1.868-.628.227 1.098 3.132c.166.475-.069 1.01-.549 1.245-3.946 1.941-6.663 4.19-8.1 6.805-1.398 2.546-1.545 5.421-.496 8.636 1.765 5.637 7.235 7.543 16.237 6.095.49-.079.957.183 1.113.626l4.523 12.905c.092.263.061.555-.08.807-.144.252-.388.437-.674.514-2.545.676-4.819.911-6.814.72-1.729-.093-3.353-.397-4.875-.912l-2.722 4.382c2.253.563 4.638.863 7.146.905 2.917.021 5.802-.468 8.657-1.463.544-.188 1.123.07 1.302.58l1.86 5.308.671-.243.654 1.865-1.658.602c-.544.197-1.131-.06-1.311-.575l-1.872-5.338c-2.779.864-5.584 1.283-8.421 1.262-3.181-.051-6.16-.495-8.948-1.325-.292-.088-.525-.302-.629-.582-.106-.278-.071-.594.092-.858l3.878-6.243c.274-.443.843-.634 1.322-.441 1.562.627 3.258.986 5.083 1.081l.049.003c1.479.145 3.129.014 4.95-.383l-3.89-11.099z" clip-rule="evenodd"/>
    <path fill="#DC5D3C" fill-rule="evenodd" d="M288.941 204.189c-2.67.56-5.439.854-8.272.854-2.349 0-4.252-1.938-4.252-4.325 0-2.386 1.903-4.324 4.252-4.324 17.855 0 32.351-14.746 32.351-32.908s-14.496-32.907-32.351-32.907c-2.349 0-4.252-1.938-4.252-4.325 0-2.387 1.903-4.325 4.252-4.325 22.548 0 40.855 18.621 40.855 41.557 0 17-10.058 31.629-24.446 38.062l26.654 63.955c.917 2.197-.093 4.738-2.253 5.668-2.161.933-4.659-.094-5.576-2.292l-26.962-64.69z" clip-rule="evenodd"/>
    <path fill="#DC5D3C" fill-rule="evenodd" d="M280.66 196.392c-17.855 0-32.352-14.745-32.352-32.907 0-18.161 14.497-32.906 32.352-32.906 2.346 0 4.252-1.938 4.252-4.325 0-2.387-1.906-4.325-4.252-4.325-22.548 0-40.855 18.621-40.855 41.556 0 22.936 18.307 41.557 40.855 41.557 2.346 0 4.252-1.938 4.252-4.325 0-2.386-1.906-4.325-4.252-4.325z" clip-rule="evenodd"/>
    <path fill="#A8CFCC" fill-rule="evenodd" d="M337.88 218.251s-2.288-8.742-1.531-19.886c1.068-15.675 10.93-29.315 25.322-35.024 14.39-5.708 30.728-2.459 41.945 8.342 2.591 2.505 4.953 5.449 6.941 8.912 9.769 17.029 12.936 35.802 4.709 54.35 0 0 5.302 35.419-2.336 60.949-3.853 12.823-14.786 22.122-27.873 23.711-.442.06-.885.111-1.334.165-11.953 1.452-23.678-4.119-30.258-14.372l-32.516-50.672-15.458 1.368c-1.541.141-2.921-.965-3.146-2.522-.125-.932.162-1.96 1.472-2.83 0 0-1.385-.011-2.469-.278-1.711-.419-2.397-1.909-2.471-3.504-.069-1.5.366-3.232 2.373-4.249-2.527.484-4.978-1.157-5.536-3.708-.024-.103-.045-.2-.063-.292-.205-.927-.075-1.898.364-2.736.414-.797 1.129-1.67 2.351-2.197l-2.476-.782c-1.858-.586-3.125-2.332-3.125-4.311v-.003c0-1.754 1.041-3.338 2.638-4.008 3.468-1.463 9.134-3.847 9.134-3.847s-7.297-9.466-4.262-12.247c.539-.495 1.743-.782 5.282 2.284 1.337 1.157 6.527 2.635 13.093 1.719 0 0 8.592-.054 19.23 5.668zm7.897-101.861c11.164 0 20.229 9.22 20.229 20.576 0 11.357-9.065 20.577-20.229 20.577-11.166 0-20.23-9.22-20.23-20.577 0-11.356 9.064-20.576 20.23-20.576z" clip-rule="evenodd"/>
    <path fill="#82B5B2" fill-rule="evenodd" d="M320.212 254.818l4.432-.509c.582-.067 1.108.36 1.175.955.066.592-.354 1.127-.938 1.194l-2.695.308-1.289-2.011-.685.063zm-20.845-5.769l12.806-1.203c.585-.056 1.103.381 1.156.976.056.595-.375 1.122-.959 1.176l-8.666.814c.018-.014.04-.027.061-.041 0 0-1.385-.011-2.469-.278-.917-.225-1.539-.755-1.929-1.444zm-2.296-7.52c.095-.057.204-.1.319-.127l11.862-2.6c.572-.127 1.138.246 1.263.83.122.581-.242 1.157-.816 1.284l-8.634 1.894c.042-.024.088-.048.133-.07-1.542.295-3.054-.2-4.127-1.211zm-2.145-8.909l12.655-3.965c.561-.176 1.156.143 1.329.713.172.57-.144 1.176-.705 1.352l-9.994 3.133c.034-.017.069-.033.103-.046l-2.476-.782c-.322-.102-.627-.237-.912-.405zm8.275-13.567l4.428-1.862c.542-.23 1.164.032 1.39.584.223.554-.035 1.186-.577 1.413l-3.96 1.665c-.034-.045-.571-.746-1.281-1.8z" clip-rule="evenodd"/>
    <path fill="url(#paint0_linear)" fill-rule="evenodd" d="M337.718 217.845c-.433-1.844-2.094-9.745-1.432-19.478 1.068-15.675 10.93-29.315 25.322-35.024 14.39-5.708 30.728-2.459 41.945 8.342 2.591 2.505 4.953 5.449 6.941 8.912 9.769 17.029 12.936 35.802 4.709 54.35 0 0 5.301 35.419-2.336 60.949-3.853 12.823-14.786 22.122-27.874 23.711-.441.06-.885.111-1.334.165-11.953 1.452-23.677-4.119-30.257-14.372l-8.772-13.669 29.824-35.454c-15.591-24.687-32.572-35.921-36.736-38.432z" clip-rule="evenodd"/>
    <path fill="#28625E" fill-rule="evenodd" d="M374.385 256.119c.053.051.103.114.146.178l19.263 29.577c.325.501.192 1.171-.297 1.501-.489.329-1.148.192-1.472-.306l-18.945-29.085 1.419-1.687-.114-.178zm41.049-19.784l.048.384-.059.124s-4.254-24.092-10.358-42.511c-.147-.381.023-.811.385-.984.361-.175.794-.035.994.319 3.25 6.42 7.706 16.03 12.646 28.961-.071.384-.146.768-.226 1.149l-.002.013-.037.179-.003.016-.04.181-.003.011c-.079.381-.167.762-.257 1.141l-.003.013-.042.173-.006.027-.04.168-.01.032-.04.165-.008.03-.043.17-.002.011c-.064.249-.131.497-.197.749l-.005.016-.043.159-.013.046-.04.146-.016.057-.04.143-.016.06-.04.14-.016.06-.042.143-.013.049-.045.151c-.019.065-.038.13-.059.195l-.05.167-.008.027-.04.135-.022.071-.039.124-.024.081-.038.119-.026.087-.037.116-.029.089-.038.116-.029.089-.037.114-.029.092-.038.113-.037.109-.026.086-.035.097-.034.106-.035.103-.037.105-.035.1-.037.105-.035.1-.037.108-.034.098-.04.111-.035.094-.04.116-.031.09-.051.135-.027.07-.074.203-.026.067-.051.138-.032.084-.045.122-.035.089-.045.119-.034.089-.045.119-.035.089-.048.122-.034.084-.054.132-.029.073-.069.17-.013.035-.085.206-.024.062-.061.143-.032.081-.053.127-.035.084-.053.122-.035.086-.053.125-.037.084-.053.127-.035.078-.061.141-.029.064-.09.209.016.108.002.035.016.1.006.048.021.144.008.054.024.192.008.056.034.244.006.048.039.309.006.029zm-67.602-11.109s-1.013-7.961-2.376-31.356c-.032-.522.322-.684.516-.727.345-.078.608.149.64.349l5.7 35.707c-1.576-1.473-3.074-2.795-4.48-3.973z" clip-rule="evenodd"/>
    <path fill="#000" fill-rule="evenodd" d="M330.052 124.069c3.71-4.682 9.391-7.679 15.758-7.679 11.164 0 20.228 9.22 20.228 20.576 0 6.426-2.901 12.167-7.443 15.941l-7.061-7.133c.752-.055 1.528-.258 2.28-.621 2.66-1.289 3.343-4.676 2.32-6.862-1.025-2.187-4.015-2.916-6.672-1.628-1.725.836-2.249 2.883-2.573 4.417l-16.837-17.011z" clip-rule="evenodd"/>
    <path fill="#A8CFCC" d="M151.87 180.953c19.857 0 35.954-16.373 35.954-36.571 0-20.198-16.097-36.571-35.954-36.571-19.856 0-35.953 16.373-35.953 36.571 0 20.198 16.097 36.571 35.953 36.571z"/>
    <path fill="#82B5B2" fill-rule="evenodd" d="M116.867 136.188c.26-.118.578-.187.962-.118.757.136 1.295.795 1.317 1.547.251.454.931 1.641 1.741 2.76 1.912 2.642 5.139 6.439 9.606 10.313 2.046-8.905 5.963-16.33 10.294-22.284-6.396-5.02-9.914-9.644-10.629-10.527-.561-.691-.463-1.714.215-2.284.68-.569 1.685-.47 2.246.22.683.842 4.034 5.244 10.13 10.023 8.307-10.363 17.305-15.521 17.305-15.521.765-.44 1.738-.164 2.171.616.433.779.162 1.77-.606 2.209 0 0-8.464 4.854-16.311 14.602 6.077 4.299 14.342 8.564 24.849 10.544 1.13-7.797.718-15.041-.077-20.411-.13-.885.47-1.711 1.339-1.845.872-.133 1.685.477 1.815 1.362.835 5.639 1.252 13.229.067 21.407 4.09.566 8.496.781 13.218.528.391-.02.752.103 1.042.324.101.786.175 1.581.228 2.381-.274.309-.662.511-1.103.535-4.974.266-9.617.036-13.93-.565-1.544 7.911-4.68 16.193-10.436 23.671 5.788.854 12.118.905 18.969-.203-.893 1.287-1.868 2.514-2.912 3.671-6.652.741-12.809.446-18.456-.573-3.861 4.33-8.706 8.317-14.754 11.71-.021.013-.045.024-.069.035-.654-.127-1.3-.273-1.94-.435-.059-.073-.112-.152-.157-.238-.425-.784-.143-1.771.627-2.203 5.047-2.833 9.206-6.104 12.618-9.65-9.466-2.314-17.356-6.621-23.566-11.239-.697 5.253-.694 10.985.284 17.196.085.546-.109 1.073-.476 1.43-.983-.643-1.932-1.332-2.846-2.068-.956-6.836-.797-13.112.144-18.825-7.538-6.222-12.066-12.509-13.339-14.878-.045-.084-.086-.164-.125-.242.142-1.006.325-1.999.545-2.975zm26.474-5.872c-4.345 5.981-8.251 13.531-10.071 22.658 6.447 5.028 14.979 9.833 25.444 12.052 6.081-7.347 9.331-15.628 10.896-23.535-11.129-2.087-19.867-6.622-26.269-11.175zm-25.526 8.95c-.074.013-.15.021-.226.023-.077.001-.154-.003-.232-.013.166.022.318.017.458-.01z" clip-rule="evenodd"/>
    <path fill="url(#paint1_linear)" fill-rule="evenodd" d="M29.108 213.408s-52.838-42.525-16.136-92.892c3.907-5.361 27.61-36.606 61.295-57.784 1.315-.83 3.008-.692 4.178.34.745.674 1.23 1.703.749 3.284 0 0 5.213-1.156 4.854 3.938 0 0 6.104-1.665 6.316 4.731l14.489-18.06c1.152-1.435 3.167-1.793 4.729-.838.709.433 1.22 1.135 1.419 1.952.2.816.072 1.68-.355 2.4-18.76 31.604-38.702 60.6-58.705 89.464 0 0 16.5 16.978 25.002 23.089 3.453 2.479 37.953 24.406 42.942 36.413l.901-5.884c.83-5.433 4.767-9.834 10.002-11.191l6.846-1.773s5.888-1.022 10.903-.981c3.284.024 6.186 2.173 7.223 5.341.475 1.462.276 3.065-.548 4.357-.465.733-.877 1.376-.877 1.376l2.28.787c1.17.402 2.113 1.292 2.599 2.446.946 2.249.54 4.852-1.047 6.693-.494.576-.861 1-.861 1h.359c1.871 0 3.553 1.157 4.252 2.925.959 2.427.183 5.206-1.884 6.76-.513.384-.869.654-.869.654.648-.224 1.254.23 1.679 1.271.843 2.057.069 4.433-1.764 5.652l-6.633 4.408c-.848 17.741-2.955 36.876-12.854 59.682-2.987 6.857-8.862 11.969-15.984 13.907-.006.005-.011.005-.016.008-14.908 4.055-30.532-3.328-37.1-17.529-3.153-6.826-6.521-15.238-9.549-25.144 0 0-12.532 1.665-25.002-4.758-14.98-7.714-29.87-25.203-22.833-46.044z" clip-rule="evenodd"/>
    <path fill="#FD9500" fill-rule="evenodd" d="M6.62 184.414c1.574-4.914 7.067-15.95 24.51-14.912 0 0 6.186-18.35 25.748-14.658 5.549 5.503 14.543 14.163 20.11 18.163 3.452 2.479 37.953 24.406 42.942 36.413l.057-.375c3.22 9.612 9.067 30.242 6.128 52.566 0 0-11.582 7.88-22.848-2.019 0 0-10.664 14.391-26.088 5.214l-.191-.621s-12.533 1.665-25.002-4.758c-14.98-7.714-29.87-25.203-22.834-46.044 0 0-13.949-11.226-22.532-28.969zm73.33-16.191l4.539 2.873c-1.637-.759-3.162-1.727-4.54-2.873z" clip-rule="evenodd"/>
    <path fill="#FD9500" fill-rule="evenodd" d="M124.441 256.462l-2.575 29.582c-.052.595.381 1.122.965 1.174.585.054 1.1-.387 1.153-.982l2.572-29.582c.053-.595-.38-1.122-.964-1.173-.585-.054-1.1.386-1.151.981z" clip-rule="evenodd"/>
    <path fill="#E15D33" fill-rule="evenodd" d="M69.305 264.276c-.906-10.824 1.514-19.625 3.131-24.112.13-.313.458-.486.784-.419.326.068.56.36.56.698.314 8.798 2.59 20.651 3.325 24.281l-.152-.492s-3.055.406-7.648.044zm-47.553-57.933c3.847-4.854 7.65-8.528 11.19-11.309 5.451-4.285 10.28-6.453 13.685-7.561.393-.089.794.122.952.498.158.378.028.816-.309 1.043-10.3 7.169-16.175 19.584-18.163 24.409-.194-.16-3.27-2.671-7.355-7.08z" clip-rule="evenodd"/>
    <path fill="#FD9500" fill-rule="evenodd" d="M159.243 221.944c.643-.205 1.238.252 1.658 1.279.024.057.045.113.066.17-1.963 1.249-6.234 3.714-10.135 4.263-.582.081-1.119-.332-1.198-.922-.083-.592.324-1.138.906-1.219 3.231-.454 6.728-2.354 8.703-3.571zm-1.876-10.331h.356c.866 0 1.693.249 2.399.692-1.171.871-5.841 4.179-10.733 5.363-.571.138-1.143-.222-1.281-.803-.135-.578.218-1.162.79-1.3 3.34-.811 6.566-2.692 8.469-3.952zm-2.961-10.92l2.116.73c-1.948 2.559-5.602 6.365-10.691 7.403-.574.119-1.135-.262-1.252-.846-.114-.586.258-1.157.835-1.273 4.137-.846 7.193-3.776 8.992-6.014zM140.119 193.558s-3.627.813-7.451.259c-.582-.084-1.119.33-1.204.919-.083.592.324 1.138.903 1.222 4.212.611 8.209-.287 8.209-.287.571-.129.935-.708.808-1.289-.125-.584-.694-.951-1.265-.824zM89.818 72.356c.333.677.55 1.549.588 2.667l1.604-2c-.031.057-.068.113-.11.166l-3.978 4.899c-.374.46-1.044.525-1.497.145-.452-.38-.516-1.062-.142-1.522l3.535-4.355zm-6.267-4.73c.396.604.623 1.458.538 2.661l-2.465 2.872c-.386.45-1.058.496-1.5.103-.442-.392-.488-1.076-.102-1.525l3.53-4.11zm-4.574-3.993c.434.649.621 1.527.258 2.72-1.33 1.276-2.865 2.757-2.865 2.757-.426.41-1.1.392-1.503-.04-.404-.434-.386-1.119.04-1.53 0 0 2.718-2.62 4.07-3.907zM51.947 149.929l-11.17-11.219c-.285-.287-.328-.735-.103-1.071.225-.336.656-.466 1.03-.312l14.785 6.121-4.542 6.481z" clip-rule="evenodd"/>
    <path fill="#DC5D3C" fill-rule="evenodd" d="M136.757 196.064l1.613-12.034c-2.578-.909-5.102-2.093-7.539-3.568-2.017-1.22-2.682-3.877-1.483-5.928 1.201-2.052 3.813-2.725 5.828-1.506 15.346 9.285 35.216 4.147 44.344-11.463 9.126-15.609 4.076-35.82-11.27-45.103-2.017-1.221-2.681-3.877-1.48-5.928 1.198-2.052 3.81-2.727 5.827-1.507 19.381 11.724 25.756 37.247 14.231 56.96-8.544 14.612-24.539 21.957-40.138 20.005l-1.049 7.828c-1.924.927-5.113 2.127-8.884 2.244z" clip-rule="evenodd"/>
    <path fill="#DC5D3C" fill-rule="evenodd" d="M135.092 173.058c-15.346-9.283-20.395-29.494-11.269-45.104 9.127-15.609 28.996-20.745 44.342-11.462 2.017 1.22 4.629.545 5.828-1.506 1.2-2.052.536-4.708-1.481-5.928-19.38-11.724-44.472-5.238-55.998 14.475-11.525 19.713-5.148 45.236 14.232 56.96 2.016 1.22 4.628.545 5.827-1.507 1.2-2.051.536-4.708-1.481-5.928z" clip-rule="evenodd"/>
    <path fill="#FB2" d="M93.047 173.032c11.545 0 20.903-9.519 20.903-21.262s-9.358-21.262-20.903-21.262c-11.544 0-20.903 9.519-20.903 21.262s9.36 21.262 20.903 21.262z"/>
    <path fill="#000" fill-rule="evenodd" d="M85.78 160.168c-3.771.662-7.784.756-11.946-.016-1.087-2.572-1.69-5.406-1.69-8.382 0-11.735 9.367-21.262 20.903-21.262 9.196 0 17.013 6.053 19.806 14.451-.875 3.998-7.453 11.984-20.964 13.612.437-1.138.473-2.519.002-3.863-.923-2.637-3.448-4.136-5.634-3.344-2.186.792-3.212 3.576-2.288 6.213.378 1.082 1.027 1.972 1.81 2.591z" clip-rule="evenodd"/>
    <path fill="#000" d="M100.316 129.043c7.873 0 14.255-6.492 14.255-14.5 0-8.009-6.382-14.501-14.255-14.501-7.874 0-14.256 6.492-14.256 14.501 0 8.008 6.382 14.5 14.256 14.5z"/>
    <path fill="#E5734E" fill-rule="evenodd" d="M251.514 68.473c-7.694 14.828-23.008 24.94-40.627 24.94-25.346 0-45.928-20.934-45.928-46.72 0-15.69 7.621-29.584 19.309-38.046l26.619 38.047 40.627 21.78z" clip-rule="evenodd"/>
    <path fill="#FB2" fill-rule="evenodd" d="M210.898 46.72L184.279 8.672C190.944 3.825 198.94.757 207.598.135l3.3 46.585z" clip-rule="evenodd"/>
    <path fill="#A8CFCC" fill-rule="evenodd" d="M208.847.054L210.951 0c12.913 0 24.589 5.432 32.931 14.18l-32.931 32.538-3.3-46.584.622-.049.574-.03z" clip-rule="evenodd"/>
    <path fill="#FFCBC4" fill-rule="evenodd" d="M256.253 11.416c8.047 8.407 13 19.889 13 32.539 0 7.864-1.916 15.277-5.304 21.78l-40.626-21.78 32.93-32.539z" clip-rule="evenodd"/>
    <defs>
        <linearGradient id="paint0_linear" x1="336.132" x2="451.001" y1="240.286" y2="330.535" gradientUnits="userSpaceOnUse">
            <stop stop-color="#82B5B2"/>
            <stop offset=".57" stop-color="#9AC1BB"/>
            <stop offset=".8" stop-color="#CED9CF"/>
            <stop offset="1" stop-color="#FFF1E2"/>
        </linearGradient>
        <linearGradient id="paint1_linear" x1="84.337" x2="-18.906" y1="254.776" y2="281.134" gradientUnits="userSpaceOnUse">
            <stop stop-color="#FB2"/>
            <stop offset=".47" stop-color="#FEB019"/>
            <stop offset="1" stop-color="#FD9500"/>
        </linearGradient>
    </defs>
</svg>
