<svg xmlns="http://www.w3.org/2000/svg" width="449" height="320" fill="none" viewBox="0 0 449 320">
    <path fill="#BABEC2" fill-rule="evenodd" d="M253.438 318.586V164.07h-7.611v154.516h7.611zm147.917 0V164.07h-7.61v154.516h7.61z" clip-rule="evenodd"/>
    <path fill="#000" fill-rule="evenodd" d="M253.438 177.405l-7.611.164V164.07h7.611v13.335zm147.917-12.84v9.647l-7.61.164v-9.837l7.61.026z" clip-rule="evenodd"/>
    <path fill="#BABEC2" d="M435.445 160.752H212.413v5.843h223.032v-5.843z"/>
    <path fill="#B9D8D6" fill-rule="evenodd" d="M215.494 160.995c2.743-11.542 12.301-20.07 23.656-20.07 11.355 0 20.913 8.528 23.656 20.07h-47.312z" clip-rule="evenodd"/>
    <path fill="#82B5B2" fill-rule="evenodd" d="M254.336 160.972c-3.773-8.814-9.718-10.606-9.718-10.606-.502-.145-.794-.671-.649-1.173.147-.503.672-.793 1.175-.647 0 0 7.096 1.971 11.246 12.426h-2.054zM262.18 161.012c.704 14.058 2.379 36.198 6.5 47.902.907 2.574 1.919 4.628 3.091 5.924.957 1.061 2.009 1.572 3.21 1.234 1.158-.327 2.354-1.173 3.472-2.296-.052-.075-.102-.151-.151-.229-1.464-2.284-2.239-5.867-2.175-9.008.033-1.718.32-3.302.848-4.484.469-1.052 1.139-1.807 1.959-2.184.853-.393 1.895-.415 3.127.182 3.029 1.467 3.688 4.749 2.771 8.343-.651 2.544-2.085 5.234-3.835 7.38.272.204.566.353.884.434.781.196 1.665-.066 2.674-.827.836-.627 1.542-1.76 2.184-3.24 1.058-2.442 1.887-5.789 2.548-9.598 2.622-15.1 2.549-37.308 2.66-39.947.022-.521.465-.929.988-.907.521.023.929.466.905.987-.111 2.656-.047 24.999-2.686 40.192-.692 3.979-1.571 7.475-2.677 10.026-.8 1.848-1.741 3.219-2.783 4.003-1.599 1.201-3.039 1.459-4.275 1.149-.604-.152-1.173-.448-1.692-.867-1.359 1.345-2.832 2.319-4.23 2.714-1.9.536-3.619-.111-5.133-1.788-1.3-1.44-2.463-3.702-3.472-6.563-4.176-11.863-5.896-34.324-6.609-48.532h1.897zm17.576 51.284c1.478-1.883 2.681-4.185 3.238-6.369.67-2.622.452-5.098-1.758-6.168-.599-.289-1.096-.358-1.511-.166-.445.206-.763.658-1.021 1.234-.44.988-.654 2.314-.682 3.75-.054 2.664.54 5.701 1.734 7.719zm-18.175-55.178c.258.159.438.438.453.765l.023.529c-.149-.436-.308-.87-.476-1.294z" clip-rule="evenodd"/>
    <path fill="#fff" d="M328.095 257.512c10.62 0 19.229-11.192 19.229-24.998 0-13.806-8.609-24.998-19.229-24.998s-19.229 11.192-19.229 24.998c0 13.806 8.609 24.998 19.229 24.998z"/>
    <path fill="#000" fill-rule="evenodd" d="M328.226 204.751v4.333c-10.2.199-18.186 10.732-18.186 23.433 0 12.698 7.986 23.231 18.186 23.43v4.335c-12.322-.194-22.52-12.45-22.52-27.765 0-15.318 10.198-27.574 22.52-27.766z" clip-rule="evenodd"/>
    <path fill="#000" fill-rule="evenodd" d="M328.219 204.761l.305-.01c12.457 0 22.825 12.332 22.825 27.775 0 15.444-10.368 27.775-22.825 27.775l-.305-.01v-4.334l.305.012c10.347 0 18.49-10.617 18.49-23.443s-8.143-23.442-18.49-23.442l-.305.009v-4.332z" clip-rule="evenodd"/>
    <path fill="#000" fill-rule="evenodd" d="M328.695 231.951c1.09 0 1.976.884 1.976 1.976 0 1.089-.886 1.975-1.976 1.975-1.092 0-1.977-.886-1.977-1.975 0-1.092.885-1.976 1.977-1.976zm3.395-2.591l6.651-12.879c.239-.464.057-1.037-.408-1.276-.466-.239-1.037-.057-1.276.407l-6.651 12.878c-.242.465-.06 1.038.407 1.277.464.239 1.035.057 1.277-.407zm-8.819-10.602l2.53 9.981c.128.507.642.813 1.151.685.507-.128.812-.645.685-1.151l-2.528-9.98c-.128-.509-.644-.814-1.151-.686-.507.127-.815.644-.687 1.151z" clip-rule="evenodd"/>
    <path fill="#A8CFCC" d="M447.363 219.256l-26.083-13.392-17.626 34.329 26.082 13.392 17.627-34.329z"/>
    <path fill="#000" fill-rule="evenodd" d="M429.136 249.099l4.429 2.271c.467.239 1.038.055 1.277-.41.239-.466.054-1.037-.412-1.276l-4.43-2.272c-.466-.237-1.037-.054-1.276.412-.237.464-.055 1.038.412 1.275zm2.74-5.346l4.432 2.269c.464.239 1.038.054 1.275-.41.239-.464.054-1.038-.41-1.274l-4.432-2.272c-.464-.239-1.035-.054-1.274.41-.24.464-.055 1.037.409 1.277zm2.743-5.349l4.43 2.272c.466.236 1.037.054 1.276-.413.24-.464.055-1.035-.412-1.274l-4.429-2.271c-.467-.24-1.038-.055-1.277.409-.237.467-.052 1.038.412 1.277zm2.743-5.348l4.43 2.271c.464.239 1.037.055 1.274-.412.239-.464.054-1.035-.41-1.274l-4.432-2.272c-.464-.239-1.035-.054-1.274.41-.239.467-.054 1.037.412 1.277zm2.741-5.349l4.432 2.272c.464.239 1.035.054 1.274-.412.239-.465.054-1.035-.41-1.275l-4.432-2.271c-.464-.239-1.037-.055-1.274.41-.239.466-.054 1.037.41 1.276zm2.667-5.204l4.432 2.272c.464.239 1.035.054 1.274-.41.239-.464.055-1.037-.41-1.274l-4.432-2.272c-.464-.239-1.037-.054-1.274.41-.239.464-.054 1.037.41 1.274z" clip-rule="evenodd"/>
    <path fill="#fff" fill-rule="evenodd" d="M361.772 211.302l40.172 9.534-2.138 5.99-38.034-15.524z" clip-rule="evenodd"/>
    <path fill="#F27F71" d="M402.821 225.084l-41.906-14.955-19.018 53.292 41.906 14.954 19.018-53.291z"/>
    <path fill="#F27F71" fill-rule="evenodd" d="M400.083 221.238l-38.512-8.92c-.509-.119-.826-.628-.71-1.14.118-.509.628-.826 1.137-.708l39.533 9.157c.26.062.483.23.613.462.13.235.156.512.069.768l-2.156 6.343c-.168.495-.705.76-1.201.592-.495-.168-.76-.708-.592-1.203l1.819-5.351z" clip-rule="evenodd"/>
    <path fill="#fff" d="M433.854 227.114h-52.631v62.904h52.631v-62.904z"/>
    <path fill="#000" fill-rule="evenodd" d="M429.077 282.873h-43.51v2.814h43.51v-2.814zm0-5.157h-43.51v2.814h43.51v-2.814zm0-5.156h-43.51v2.814h43.51v-2.814zm0-5.157h-43.51v2.814h43.51v-2.814zm0-5.156h-43.51v2.814h43.51v-2.814zm0-5.157h-43.51v2.814h43.51v-2.814zm0-5.156h-43.51v2.814h43.51v-2.814zm0-5.157h-43.51v2.814h43.51v-2.814zm0-5.156h-43.51v2.814h43.51v-2.814zm0-5.157h-43.51v2.814h43.51v-2.814zm0-5.164h-43.51v2.814h43.51V231.3z" clip-rule="evenodd"/>
    <path fill="#000" fill-rule="evenodd" d="M382.17 289.07h25.553c.521 0 .948.424.948.947 0 .524-.427.948-.948.948h-26.5c-.524 0-.948-.424-.948-.948v-62.904c0-.523.424-.947.948-.947h25.162c.521 0 .947.424.947.947 0 .524-.426.948-.947.948H382.17v61.009z" clip-rule="evenodd"/>
    <path fill="#000" fill-rule="evenodd" d="M432.944 228.061h-26.522c-.523 0-.947-.424-.947-.948 0-.523.424-.947.947-.947h27.469c.524 0 .948.424.948.947v62.904c0 .524-.424.948-.948.948H407.76c-.523 0-.947-.424-.947-.948 0-.523.424-.947.947-.947h25.184v-61.009z" clip-rule="evenodd"/>
    <path fill="#FFD798" d="M443.217 235.638H302.546v84.063h140.671v-84.063z"/>
    <path fill="#F8BB61" fill-rule="evenodd" d="M388.811 235.638v37.609l-4.434-3.489-4.155 3.489-4.216-3.489-4.026 3.489-3.703-3.489-3.88 3.489v-37.609h24.414z" clip-rule="evenodd"/>
    <path fill="#FFC3BB" d="M82.584 55.21c10.97 0 19.864-8.893 19.864-19.864 0-10.97-8.893-19.863-19.864-19.863-10.97 0-19.863 8.893-19.863 19.863 0 10.97 8.893 19.864 19.863 19.864z"/>
    <path fill="#000" fill-rule="evenodd" d="M71.692 51.956c-5.403-3.553-8.971-9.668-8.971-16.61 0-10.962 8.9-19.863 19.863-19.863 2.472 0 4.84.452 7.025 1.28L79.229 37.15c-.774-1.315-2.239-2.202-3.916-2.202-2.484 0-4.502 1.947-4.502 4.346s2.018 4.346 4.502 4.346c.215 0 .427-.015.634-.043l-4.255 8.358z" clip-rule="evenodd"/>
    <path fill="#fff" fill-rule="evenodd" d="M78.025 17.75s-2.81 7.492-2.703 10.659c.057 1.689 1.474 3.014 3.163 2.957 1.69-.057 3.014-1.475 2.957-3.164-.106-3.167-3.417-10.453-3.417-10.453z" clip-rule="evenodd"/>
    <path fill="url(#paint0_linear)" fill-rule="evenodd" d="M77.182 256.26c-10.267.905-22.956.957-37.87-.955-10.13-1.298-43.96-11.928-35.415-56.13 1.69-8.738 10.191-30.333 46.328-32.211 10.547-.55 84.247-9.029 113.772 23.514.578.639 1.324 1.492 2.162 2.593 10.027 4.55 39.017 20.259 37.911 49.408 0 0-2.291 32.649-44.661 46.724-3.132 7.013-6.808 14.498-11.102 22.469 0 0 9.654 2.582 12.101 8.008H85.911l4.46-14.114-4.634 1.094c-.044 4.908-4.637 9.806-8.555 13.34v-63.74z" clip-rule="evenodd"/>
    <path fill="#F27F71" fill-rule="evenodd" d="M87.05 306.353l4.12-52.148c.04-.522.497-.91 1.018-.87.522.041.912.498.87 1.019l-4.07 51.542-1.937.457zM99.531 251.758l9.102-1.762 5.638-18.198c.139-.45-.076-.933-.504-1.13-.427-.197-.934-.045-1.184.353l-13.052 20.737z" clip-rule="evenodd"/>
    <path fill="#F27F71" fill-rule="evenodd" d="M77.194 256.258c-2.29.202 18.39-3.849 30.439-7.47.753-.228 1.616-.356 1.616-.356s-.338 1.223-.448 1.557l-14.519 44.45 63.142-.858c-.296.633-.594 1.267-.898 1.907l-62.713.853c-.05 0-.1-.005-.148-.012l-3.282 9.235-1.873.443 17.932-54.898c-9.47 2.748-19.042 5.14-29.248 6.632v-1.483zm82.26 32.932c28.192-59.877 6.192-96.812 6.718-96.12.724.329 1.551.718 2.461 1.165 5.829 11.346 16.774 43.088-6.685 94.088-.812.296-1.646.585-2.494.867z" clip-rule="evenodd"/>
    <path fill="#FFC3BB" fill-rule="evenodd" d="M60.007 60.278c43.827.468 75.102 6.444 111.66 9.413 11.045.897 36.351 7.23 30.432 29.967-2.245 8.627-10.067 14.624-18.98 14.555l-36.539-.283s16.733 14.235 51.568 14.74c0 0 38.403 3.255 42.004 3.401 6.362.258 10.168.356 13.66.556.75.044 1.414.504 1.719 1.191.306.687.204 1.487-.265 2.075-.725.902-2.184 1.921-4.924 2.952-5.003 1.883-8.918 2.046-12.765 3.179.289-.643 6.246 4.968 9.735 8.57.694.727.943 1.77.654 2.732-.292.961-1.078 1.692-2.059 1.912-.753.171-1.662.209-2.75.016 2.071 2.018-.348 5.365-6.862 2.078-1.71-.863-2.3-1.102-6.698-3.82l2.229 4.007c.218.393.265.86.125 1.288-.137.429-.447.782-.855.974-.905.421-2.333.556-4.455-.554-3.226-1.685-5.42-2.611-7.433-3.44-1.857-.764-3.968-.59-5.673.467-7.032 4.342-28.995 14.446-70.583 4.955 0 0-24.917-3.295-57.497-24.374-.866-3.433-41.366 44.347-77.291 4.053-14.15-15.872-17.077-81.345 51.843-80.61z" clip-rule="evenodd"/>
    <path fill="#F27F71" fill-rule="evenodd" d="M229.613 153.623c-6.343-8.415-10.818-8.605-10.818-8.605-.521-.009-.94-.44-.931-.963.008-.523.439-.94.962-.932 0 0 6.047-.046 13.982 11.723.149.223.192.489.14.733-.812-.474-1.876-1.116-3.39-2.051l.055.095zm13.506 1.647c.071.07-8.676-7.551-9.775-8.747-3.743-4.077-6.481-5.985-8.295-6.86-1.358-.655-2.215-.668-2.248-.668l.033-.005-.033.005c-.502.065-.971-.281-1.054-.786-.086-.516.265-1.004.781-1.089 0 0 3.987-.834 12.213 8.121 1.222 1.332 7.201 6.995 11.344 9.956-.072.022-.143.041-.216.058-.753.171-1.663.209-2.75.015zm-17.583-24.299c1.739.142 3.416.278 4.977.403 1.345.962 2.724 2.259 3.972 4.009.87 1.219 2.568 3.693 5.602 6.024-.777.166-1.544.347-2.307.564-2.53-2.19-4.024-4.349-4.837-5.488-2.442-3.423-5.441-4.889-7.407-5.512z" clip-rule="evenodd"/>
    <path fill="url(#paint1_linear)" fill-rule="evenodd" d="M134.829 159.461c-9.9-2.608-27.992-8.781-49.39-22.626-.393-2.903-41.968 45.782-77.292 4.053C-5.787 124.427-8.93 59.543 59.99 60.278c43.827.468 75.102 6.444 111.66 9.413 11.045.897 36.352 7.23 30.432 29.967-2.245 8.627-10.066 14.624-18.98 14.555l-36.538-.282s11.919 10.139 36.579 13.606l-5.534 37.583c-6.234.133-13.292-.251-21.216-1.393-6.525-1.296-14.008-2.778-21.564-4.266z" clip-rule="evenodd"/>
    <path fill="#AC2310" fill-rule="evenodd" d="M78.966 141.48c-5.369-6.432-8.168-13.54-9.424-17.476-.093-.329.054-.68.354-.845.3-.165.674-.102.903.152 5.961 6.439 13.354 12.437 14.516 13.369-.597.039-2.848 2.041-6.349 4.8zm67.663-27.552l.002.002.01.008.016.014.01.007.007.007.012.01.019.014.016.013.014.013.012.01.017.013.028.022.022.018.011.008.015.011.042.033.029.024.007.006.009.006.071.056.026.02.003.002.121.093.009.006.04.031.074.056.016.012c.038.028.081.059.121.09l.007.004.007.006.313.229.021.014.048.035.026.018.007.006.021.015.043.029.021.016.014.01.031.021.033.025.019.013.019.014.04.027.029.02.012.009.026.017.049.036.022.014.007.005.026.019.066.046.015.009c-11.114-6.98-30.978-21.765-44.064-31.92-.516-.401-.61-1.146-.209-1.662.401-.517 1.145-.61 1.662-.21 13.533 10.502 34.356 26.004 45.072 32.536l-4.195-.033.026.023.007.004zm5.898-35.726l32.623.926c.652.019 1.199-.497 1.218-1.15.016-.654-.498-1.2-1.151-1.218l-32.624-.925c-.654-.02-1.198.496-1.217 1.15-.019.653.497 1.198 1.151 1.217z" clip-rule="evenodd"/>
    <path fill="#000" fill-rule="evenodd" d="M119.515 81.91c-4.77-10.93-27.171-20.216-27.171-20.216l9.085.734c10.102 4.59 17.559 12.57 20.493 16.05 1.118.15 3.9.574 3.946 1.087.057.642.445 11.428.445 11.428l-.106.052.313.02c5.596 10.358 3.56 25.039 11.548 33.863 2.53 2.794 5.839 5.42 9.458 6.622 4.204 1.396 8.57 1.332 12.933 1.076 1.153-.068 3.955-.272 5.365-.376.523-.038 1.028.196 1.338.619l5.803 7.922c.488.666.422 1.586-.156 2.175-2.073 2.11-6.767 6.89-8.364 8.512-.346.353-.841.515-1.329.434-.923-.142-2.394-.381-2.946-.54-3.21-.927-6.374-2.014-9.461-3.293-8.83-3.658-18.166-9.425-22.011-18.541-2.246-5.325-2.586-11.008-2.562-16.709.022-5.026.61-10.315-.44-15.276-.407-1.93-1.314-3.736-2.209-5.479-.02-.04-.103-.174-.207-.35-4.211-.15-6.157-5.527-6.157-5.527l2.392-4.286z" clip-rule="evenodd"/>
    <path fill="#FFC3BB" fill-rule="evenodd" d="M162.143 114.024l-8.553-38.062s-8.124-.484-12.947-1.353c0 0-11.83-3.847-20.135-1.11-1.35.445-5.52 2.727-8.36 8.209-1.186 2.288 2.723 3.775 7.23 0 .922-.772 2.691-1.667 4.532-1.82 0 0-5.75 4.499 0 8.275 0 0-1.179 4.007 3.804 4.842 0 0-.741 5.991 8.405 11.769 2.62 1.656 22.959 9.916 26.024 9.25z" clip-rule="evenodd"/>
    <path fill="#F27F71" fill-rule="evenodd" d="M126.063 92.553c.76-2.192 2.432-3.502 4.045-4.268 1.866-.886 3.632-1.027 3.632-1.027.522-.043.979.345 1.021.867.043.52-.346.979-.867 1.022 0 0-1.433.146-2.973.85-2.4 1.097-3.235 3.016-3.235 3.016-.637-.107-1.173-.265-1.623-.46zm-3.553-5.504c1.03-1.788 2.63-2.943 4.251-3.677 2.658-1.203 5.345-1.254 5.345-1.254.522-.01.955.406.966.928.01.523-.406.956-.929.967 0 0-2.312.05-4.601 1.085-1.454.659-3.66 3.073-3.66 3.073-.562-.369-1.013-.744-1.372-1.122zm-1.887-6.166c.017-.16.075-.319.178-.459 2.938-4.015 9.385-4.274 9.385-4.274.523-.017.961.394.978.916.017.523-.393.961-.916.978 0 0-1.997.069-4.14.865-1.223.454-2.226.987-2.226.987-1.185.098-2.34.504-3.259.987z" clip-rule="evenodd"/>
    <path fill="#000" fill-rule="evenodd" d="M61.615 60.272s9.378.55 22.824 8.394c4.185 2.441 14.417 9.23 26.838 13.042 4.717 1.448 7.005.374 8.597.851l-1.772 4.224s-7.932-.823-10.916-1.9c0 0-37.533-23.628-45.57-24.61z" clip-rule="evenodd"/>
    <path fill="#FFD798" d="M97.779 256.334H8.926v63.423H97.78v-63.423z"/>
    <path fill="#F8BB61" fill-rule="evenodd" d="M26.197 319.76h-1.895v-63.426h1.895v63.426zM67.8 256.334v32.889l-5.483-3.908-5.417 3.908v-32.889h10.9zm-46.735 0v21.969l-4.34-6.61-2.98 2.795v-18.154h7.32z" clip-rule="evenodd"/>
    <path fill="#A3A8AE" fill-rule="evenodd" d="M328.227 128.743h-61.308V29.702h148.834v99.041h-64.422v25.503h8.332v6.79h-39.701v-6.79h8.265v-25.503z" clip-rule="evenodd"/>
    <path fill="#E4E4E6" fill-rule="evenodd" d="M411.826 29.702v99.041h-64.423v25.503h8.333v6.79h-35.774v-6.79h8.265v-25.503h-61.308V29.702h144.907z" clip-rule="evenodd"/>
    <path fill="#fff" d="M404.982 37.285H274.344v81.493h130.638V37.285z"/>
    <path fill="#A3A8AE" fill-rule="evenodd" d="M347.474 154.041h3.207c-.169.148-.389.237-.628.237l-21.756-.237v-1.658h19.177v1.658zm0-23.387h-19.177v-1.894h19.177v1.894z" clip-rule="evenodd"/>
    <path fill="#FFF3EB" d="M365.404 0H291.17v90.952h74.234V0z"/>
    <path fill="#F27F71" d="M347.017 29.225c6.456 0 11.69-5.234 11.69-11.69 0-6.456-5.234-11.69-11.69-11.69-6.456 0-11.69 5.234-11.69 11.69 0 6.456 5.234 11.69 11.69 11.69z"/>
    <path fill="#FFCFC8" fill-rule="evenodd" d="M337.618 24.439c2.21-2.204 5.363-3.585 8.864-3.585 3.835 0 7.257 1.66 9.472 4.244-2.144 2.522-5.341 4.122-8.906 4.122-3.871 0-7.3-1.883-9.43-4.781z" clip-rule="evenodd"/>
    <path fill="#FFCFC8" d="M346.765 19.399c2.259 0 4.091-1.832 4.091-4.091 0-2.26-1.832-4.091-4.091-4.091-2.26 0-4.091 1.832-4.091 4.09 0 2.26 1.831 4.092 4.091 4.092z"/>
    <path fill="#000" fill-rule="evenodd" d="M342.674 15.334v-.026c0-2.258 1.833-4.091 4.09-4.091 2.258 0 4.091 1.833 4.091 4.09v.023c-2.774.025-4.091-2.861-4.091-2.861-.734 2.37-2.877 2.812-4.09 2.865z" clip-rule="evenodd"/>
    <path fill="#F27F71" fill-rule="evenodd" d="M355.866 80.499h-51.115v2.904h51.115v-2.904zm0-6.148h-51.115v2.904h51.115v-2.904zm0-5.966h-51.115v2.904h51.115v-2.904zm-2.013-8.122h-55.258v4.718h55.258v-4.717zm2.013-8.764h-51.115v2.904h51.115v-2.904zm0-6.148h-51.115v2.904h51.115v-2.904zm0-5.966h-51.115v2.904h51.115v-2.904zM337.751 29.07h-39.156v4.717h39.156V29.07zm-6.909-8.768h-30.93v2.108h30.93v-2.108zm-7.933-4.162h-22.997v2.109h22.997V16.14zm6.13-4.463h-29.127v2.109h29.127v-2.108zm3.21-4.33h-32.337v2.108h32.337V7.346z" clip-rule="evenodd"/>
    <path fill="#A8CFCC" d="M399.51 69.672h-59.601v34.631h59.601v-34.63z"/>
    <path fill="#82B5B2" fill-rule="evenodd" d="M399.509 71.945L370.24 91.699c-.322.216-.742.216-1.061 0l-29.27-19.747v-2.28h.007l29.793 20.099 29.781-20.099h.019v2.273z" clip-rule="evenodd"/>
    <path fill="#F27F71" fill-rule="evenodd" d="M327.581 113.985l-4.421-5.037 5.595-4.912-4.105-4.676 20.706-5.437-8.074 19.827-4.106-4.677-5.595 4.912z" clip-rule="evenodd"/>
    <defs>
        <linearGradient id="paint0_linear" x1="95.05" x2="301.263" y1="191.626" y2="264.473" gradientUnits="userSpaceOnUse">
            <stop stop-color="#FFC3BB"/>
            <stop offset="1" stop-color="#F27F71"/>
        </linearGradient>
        <linearGradient id="paint1_linear" x1="61.778" x2="-59.037" y1="73.33" y2="144.208" gradientUnits="userSpaceOnUse">
            <stop stop-color="#F27F71"/>
            <stop offset=".58" stop-color="#EC6E5F"/>
            <stop offset=".8" stop-color="#E04B39"/>
            <stop offset="1" stop-color="#D52914"/>
        </linearGradient>
    </defs>
</svg>
