<svg xmlns="http://www.w3.org/2000/svg" width="200" height="431" fill="none" viewBox="0 0 200 431">
    <path fill="#97D3D3" d="M123.696 240.715c3.029-19.571 2.551-40.294 7.015-59.405 5.898-25.788 19.768-45.82 31.086-67.464 11.16-21.874 20.247-49.734 14.348-75.523-7.811-34.307-36.826-46.28-61.376-52.958-26.145-7.137-52.29-14.275-78.594-21.413-13.87-3.914-29.014-7.368-41.608 2.303-15.942 12.203-21.522 40.524-24.391 66.082-11.638 101.541-20.087 369.094 104.579 293.341 24.39-14.966 43.202-47.662 48.941-84.963z"/>
    <path fill="#000" d="M119.829 142c20.12 0 40.473 7.361 54.977 20.934 20.354 19.094 29.244 49.69 21.991 76.375-2.105 8.052-5.848 15.873-9.124 23.465-5.38 11.732-10.761 23.694-11.229 36.577-.234 12.882 4.445 25.075 9.358 37.037 3.977 10.122 8.188 20.474 9.124 31.516 2.105 20.474-10.762 44.399-29.477 56.131-14.271 8.742-29.243 9.202-42.578 1.151-32.519-19.324-58.019-67.634-73.693-104.441-15.44-36.577-20.587-69.934-14.973-99.379 6.785-36.118 31.115-65.793 61.762-75.915 7.72-2.301 15.908-3.451 23.862-3.451zm22.927 287.786c7.252 0 14.739-2.3 21.991-6.671 18.482-11.502 30.881-35.197 29.009-54.981-1.17-10.812-5.147-21.164-9.124-31.056-4.679-11.962-9.592-24.385-9.358-37.497.234-13.113 5.849-25.305 11.23-37.037 3.509-7.592 7.018-15.413 9.124-23.235 7.252-26.225-1.638-56.591-21.757-75.225-20.12-18.633-51.234-25.535-77.67-17.023-30.413 9.892-54.275 39.338-61.06 74.995-5.38 29.215-.468 62.342 14.973 98.689 15.674 36.807 40.94 84.887 73.224 103.98 6.317 3.221 12.868 5.061 19.418 5.061z"/>
</svg>
